<?xml version="1.0" standalone="no"?>
<!DOCTYPE svg PUBLIC "-//W3C//DTD SVG 20010904//EN"
 "http://www.w3.org/TR/2001/REC-SVG-20010904/DTD/svg10.dtd">
<svg version="1.0" xmlns="http://www.w3.org/2000/svg"
 width="1000.000000pt" height="358.000000pt" viewBox="0 0 1000.000000 358.000000"
 preserveAspectRatio="xMidYMid meet">

<g transform="translate(0.000000,358.000000) scale(0.100000,-0.100000)"
fill="#000000" stroke="none">
<path d="M0 1790 l0 -1790 5000 0 5000 0 0 1790 0 1790 -5000 0 -5000 0 0
-1790z m5308 3 c-2 -288 -6 -397 -15 -400 -8 -3 -12 97 -15 384 -2 213 -2 394
0 401 2 6 10 12 18 12 12 0 14 -61 12 -397z m-204 146 c-1 -376 -4 -469 -14
-469 -6 0 -10 114 -10 321 0 252 3 320 13 316 9 -3 12 -45 11 -168z m406 -149
c0 -278 -2 -320 -15 -320 -13 0 -15 42 -15 320 0 278 2 320 15 320 13 0 15
-42 15 -320z m-610 0 c0 -153 -4 -240 -10 -240 -6 0 -10 87 -10 240 0 153 4
240 10 240 6 0 10 -87 10 -240z m810 0 c0 -153 -4 -240 -10 -240 -6 0 -10 87
-10 240 0 153 4 240 10 240 6 0 10 -87 10 -240z m195 3 c-4 -87 -9 -160 -11
-162 -2 -2 -4 68 -4 157 0 111 3 162 11 162 8 0 9 -45 4 -157z m-1218 -80 c-1
-43 -3 -8 -3 77 0 85 2 120 3 78 2 -43 2 -113 0 -155z m-600 35 c-2 -24 -4 -5
-4 42 0 47 2 66 4 43 2 -24 2 -62 0 -85z m400 5 c-2 -21 -4 -4 -4 37 0 41 2
58 4 38 2 -21 2 -55 0 -75z"/>
</g>
</svg>
