<?xml version="1.0" standalone="no"?>
<!DOCTYPE svg PUBLIC "-//W3C//DTD SVG 20010904//EN"
 "http://www.w3.org/TR/2001/REC-SVG-20010904/DTD/svg10.dtd">
<svg version="1.0" xmlns="http://www.w3.org/2000/svg"
 width="920.000000pt" height="883.000000pt" viewBox="0 0 920.000000 883.000000"
 preserveAspectRatio="xMidYMid meet">

<g transform="translate(0.000000,883.000000) scale(0.100000,-0.100000)"
fill="#000000" stroke="none">
<path d="M4175 8806 c-331 -76 -645 -353 -780 -690 -142 -352 -100 -737 116
-1059 57 -84 218 -243 304 -299 82 -54 229 -129 300 -154 40 -14 95 -18 276
-22 346 -7 415 8 637 141 558 332 730 1063 375 1595 -135 203 -374 387 -610
469 -75 26 -87 27 -318 30 -176 2 -256 -1 -300 -11z"/>
<path d="M3040 6050 c-191 -7 -212 -10 -292 -37 -159 -55 -295 -166 -398 -324
-125 -194 -135 -247 -146 -812 l-7 -348 84 41 c46 22 109 45 141 52 l58 12 0
171 c0 95 3 300 7 458 l6 285 86 16 c214 40 748 41 976 1 215 -38 619 -237
809 -399 45 -38 88 -75 97 -83 14 -12 28 -2 112 71 174 153 276 216 467 289
131 51 278 89 430 112 151 23 544 31 810 15 l220 -13 0 -457 0 -458 28 -6 c15
-4 71 -21 126 -38 81 -25 100 -28 107 -17 12 19 11 560 -1 723 -14 197 -49
290 -158 427 -104 131 -224 225 -364 286 l-78 34 -1458 4 c-801 2 -1549 0
-1662 -5z"/>
<path d="M2863 5381 c-71 -4 -127 -11 -134 -17 -18 -19 -30 -235 -27 -495 l3
-244 105 -54 c87 -45 120 -70 190 -140 70 -71 95 -104 137 -186 87 -173 117
-292 116 -470 0 -176 -33 -300 -125 -478 -32 -63 -64 -103 -133 -172 -76 -76
-106 -98 -190 -140 l-100 -50 -3 -364 c-1 -201 -1 -370 2 -376 3 -8 46 -3 142
16 259 51 370 62 573 56 363 -11 608 -97 906 -318 73 -55 135 -99 139 -99 4 0
67 48 140 107 214 173 352 245 570 296 80 19 120 21 336 21 194 0 266 -3 345
-18 85 -16 343 -75 398 -92 16 -5 17 18 17 394 l0 399 -42 19 c-253 110 -422
373 -458 709 -24 221 31 461 143 624 80 117 198 225 295 271 l62 30 0 374 0
374 -66 8 c-109 11 -566 -2 -693 -21 -452 -66 -714 -212 -997 -558 l-31 -37
-46 59 c-75 97 -273 256 -467 375 -141 86 -333 154 -518 181 -111 17 -398 24
-589 16z"/>
<path d="M2475 4416 c-156 -50 -264 -155 -353 -345 -35 -74 -36 -80 -40 -217
-5 -167 15 -320 53 -403 57 -123 148 -223 257 -279 48 -24 63 -27 158 -27 97
0 110 2 170 31 246 118 371 449 300 793 -48 232 -188 392 -395 450 -51 14 -99
13 -150 -3z"/>
<path d="M6394 4420 c-120 -25 -249 -117 -313 -224 -177 -295 -134 -732 92
-942 141 -131 301 -156 460 -72 75 40 177 142 222 222 67 119 94 296 76 488
-17 174 -64 278 -181 398 -108 110 -234 156 -356 130z"/>
<path d="M1272 3658 c-33 -95 -89 -256 -125 -358 -130 -368 -240 -679 -307
-870 -37 -107 -107 -305 -155 -440 -373 -1056 -685 -1951 -685 -1967 0 -6
9169 -3 9183 3 13 5 13 11 -3 47 -10 23 -64 155 -120 292 -56 138 -133 324
-170 415 -82 200 -208 507 -300 730 -146 356 -233 568 -360 875 -73 176 -158
383 -190 460 -31 77 -101 246 -154 375 -53 129 -128 312 -167 405 -38 94 -73
175 -77 182 -5 7 -65 14 -176 19 l-168 7 4 -184 c2 -101 8 -191 11 -199 4 -9
21 -21 37 -27 16 -6 34 -22 40 -35 9 -22 395 -957 520 -1263 55 -134 195 -475
321 -785 122 -296 369 -911 369 -915 0 -7 -7507 -2 -7806 4 l-242 6 49 135
c44 122 172 485 330 935 33 94 91 258 129 365 38 107 110 310 160 450 218 612
388 1057 423 1105 21 28 22 42 25 218 l3 187 -169 0 -169 0 -61 -172z"/>
</g>
</svg>
