<?xml version="1.0" standalone="no"?>
<!DOCTYPE svg PUBLIC "-//W3C//DTD SVG 20010904//EN"
 "http://www.w3.org/TR/2001/REC-SVG-20010904/DTD/svg10.dtd">
<svg version="1.0" xmlns="http://www.w3.org/2000/svg"
 width="360.000000pt" height="360.000000pt" viewBox="0 0 360.000000 360.000000"
 preserveAspectRatio="xMidYMid meet">

<g transform="translate(0.000000,360.000000) scale(0.100000,-0.100000)"
fill="#000000" stroke="none">
<path d="M1709 2887 c-52 -35 -79 -82 -79 -139 0 -56 16 -91 57 -130 140 -131
353 51 252 217 -43 72 -161 98 -230 52z"/>
<path d="M470 2539 c-61 -25 -100 -85 -100 -154 0 -61 25 -111 69 -140 103
-68 229 -19 262 100 19 66 -25 156 -92 190 -32 17 -102 19 -139 4z"/>
<path d="M2979 2527 c-55 -37 -79 -81 -79 -146 0 -43 6 -65 25 -93 27 -40 96
-78 140 -78 44 0 113 38 140 78 34 50 35 134 2 183 -36 53 -82 79 -142 79 -38
0 -61 -6 -86 -23z"/>
<path d="M1507 2476 c-59 -16 -114 -59 -141 -112 -19 -34 -21 -57 -21 -193 l0
-153 70 0 70 0 3 86 c2 67 6 86 17 86 12 0 15 -17 15 -85 l0 -84 270 -3 270
-3 0 83 c0 45 3 82 8 82 4 0 40 -36 80 -80 l73 -80 78 0 77 0 128 129 c123
125 127 130 124 167 -2 29 -9 42 -29 53 -43 24 -76 6 -184 -100 -56 -54 -107
-99 -115 -99 -8 0 -82 67 -165 149 -119 118 -158 151 -190 160 -56 15 -378 13
-438 -3z"/>
<path d="M950 2145 c-6 -8 -9 -19 -5 -25 9 -14 45 6 45 25 0 19 -24 19 -40 0z"/>
<path d="M415 2135 c-50 -18 -101 -72 -113 -122 -6 -21 -16 -176 -23 -345 -12
-287 -11 -308 5 -333 32 -48 66 -55 289 -55 182 0 206 -2 219 -17 8 -10 57
-130 109 -266 51 -137 101 -262 111 -278 36 -60 122 -63 172 -8 22 25 27 38
23 63 -6 35 -227 624 -263 703 -14 28 -32 54 -42 58 -9 4 -65 9 -124 12 -63 4
-112 11 -118 17 -5 7 -12 79 -16 161 l-7 149 34 -21 c19 -11 64 -36 101 -56
l66 -37 161 0 c148 0 163 2 181 20 28 28 26 75 -5 105 -23 24 -29 25 -160 25
l-136 0 -142 107 c-180 136 -225 152 -322 118z"/>
<path d="M3042 2137 c-18 -7 -98 -60 -177 -119 l-145 -108 -136 0 c-130 0
-136 -1 -159 -25 -28 -27 -30 -42 -14 -78 18 -40 50 -47 205 -47 159 0 135 -7
303 88 l43 24 -4 -145 c-3 -92 -9 -151 -16 -160 -9 -10 -43 -16 -122 -19 -122
-5 -140 -13 -168 -78 -45 -106 -262 -694 -262 -710 0 -11 13 -34 29 -52 26
-29 35 -33 80 -33 41 0 55 5 75 25 15 16 60 121 122 285 53 143 104 268 112
278 13 15 37 17 219 17 216 0 249 6 287 49 19 21 19 30 7 334 -7 171 -17 330
-23 352 -26 99 -152 160 -256 122z"/>
<path d="M991 2086 c-10 -12 -4 -28 31 -80 36 -54 48 -66 71 -66 15 0 27 3 27
7 0 15 -96 153 -106 153 -6 0 -17 -6 -23 -14z"/>
<path d="M922 1993 c-36 -54 -37 -53 16 -53 58 0 71 17 46 56 -21 31 -38 30
-62 -3z"/>
<path d="M2570 2013 c0 -3 11 -21 26 -40 21 -28 31 -33 65 -33 44 0 48 9 18
51 -17 25 -27 29 -65 29 -24 0 -44 -3 -44 -7z"/>
<path d="M18 1963 c-13 -3 -16 -12 -12 -31 2 -15 18 -152 34 -305 27 -250 30
-309 30 -612 l0 -335 56 0 56 0 -5 383 c-4 385 -10 456 -63 830 -9 64 -38 85
-96 70z"/>
<path d="M3523 1955 c-27 -19 -26 -15 -68 -340 -34 -270 -35 -292 -35 -607 l0
-328 55 0 55 0 0 333 c0 317 2 348 35 637 37 316 37 319 -5 320 -9 0 -25 -7
-37 -15z"/>
<path d="M742 1724 c-16 -24 -22 -49 -22 -89 l0 -55 1080 0 1080 0 0 59 c0 44
-5 65 -21 85 -24 31 -36 32 -69 6 -20 -15 -23 -21 -12 -31 38 -40 52 -39 -978
-39 -855 0 -990 2 -990 14 0 8 5 18 10 21 19 12 10 31 -23 47 -33 16 -33 16
-55 -18z"/>
<path d="M1582 1523 c-60 -29 -62 -43 -62 -343 0 -298 3 -316 60 -345 39 -20
68 -19 107 5 50 30 55 66 51 366 l-3 264 -30 29 c-38 37 -80 46 -123 24z"/>
<path d="M1913 1525 c-61 -26 -64 -43 -61 -361 l3 -286 28 -24 c52 -45 110
-44 153 3 l24 26 0 291 c0 323 0 325 -66 352 -40 17 -41 17 -81 -1z"/>
</g>
</svg>
